<svg id="SvgjsSvg1001" width="288" height="288" xmlns="http://www.w3.org/2000/svg" version="1.1" xmlns:xlink="http://www.w3.org/1999/xlink" xmlns:svgjs="http://svgjs.com/svgjs"><defs id="SvgjsDefs1002"></defs><g id="SvgjsG1008"><svg xmlns="http://www.w3.org/2000/svg" version="1.0" viewBox="0 0 500 500" width="288" height="288"><path d="M2474 4385 c-71 -35 -95 -73 -105 -159 -4 -39 -11 -81 -14 -93 -5-14 0 -39 13 -65 30 -65 46 -142 33 -166 -6 -12 -40 -31 -78 -46 -38 -14 -111
-41 -163 -60 -52 -20 -99 -43 -105 -52 -23 -39 -121 -141 -164 -172 -25 -18
-51 -45 -58 -60 -6 -15 -37 -52 -68 -82 -32 -30 -63 -67 -71 -82 -24 -46 -17
-107 21 -186 66 -139 232 -406 266 -430 11 -7 19 -25 19 -41 0 -15 7 -36 15
-47 19 -25 19 -48 0 -64 -8 -7 -21 -33 -29 -59 -8 -25 -23 -66 -34 -91 -54
-120 -93 -347 -96 -554 -1 -119 3 -149 42 -337 l44 -206 -36 -39 c-20 -21 -36
-46 -36 -54 -1 -26 -33 -57 -89 -85 -53 -26 -53 -27 -47 -65 5 -34 3 -39 -23
-49 -38 -16 -87 -68 -105 -113 -20 -46 -21 -138 -2 -182 38 -90 139 -153 232
-143 136 14 220 112 212 249 -3 55 -9 75 -34 110 -16 24 -47 54 -68 68 -34 22
-36 25 -19 37 9 8 24 11 33 7 8 -3 32 -7 53 -9 32 -2 40 2 56 29 23 37 39 180
22 190 -17 11 -14 210 5 366 l17 135 -26 106 c-27 118 -26 147 8 179 l23 21
33 -20 c42 -26 71 -27 91 -3 9 9 39 58 67 109 29 51 57 95 63 99 8 5 10 -39 6
-159 l-6 -165 27 -26 c14 -13 38 -29 52 -35 23 -8 27 -18 39 -86 12 -73 12
-82 -10 -154 -18 -63 -24 -111 -30 -276 -6 -183 -9 -206 -34 -275 -51 -139
-51 -138 -38 -186 7 -24 12 -60 12 -79 0 -50 42 -95 97 -102 55 -7 88 14 104
66 11 36 9 45 -14 93 -46 95 -41 189 19 329 14 34 39 112 56 173 26 97 31 135
37 301 6 138 12 198 23 220 8 17 21 77 27 135 13 106 34 213 71 350 15 54 20
101 19 167 -2 61 2 97 10 107 7 8 36 20 65 26 51 10 60 18 222 183 172 175
259 279 271 325 8 33 -15 74 -88 157 -32 36 -66 79 -74 95 -9 17 -19 30 -23
30 -5 0 -58 55 -119 123 -82 91 -122 128 -154 141 -209 89 -272 121 -282 143
-14 32 8 121 36 144 23 18 24 40 8 179 -5 47 -10 86 -10 87 -1 2 -18 20 -39
42 -22 23 -54 43 -77 50 -51 14 -43 15 -101 -14z m-330 -974 c30 -102 40 -233
28 -360 -7 -66 -18 -137 -24 -158 -11 -33 -17 -38 -47 -41 -61 -6 -76 4 -114
75 -19 38 -52 111 -72 163 -20 52 -41 99 -46 105 -5 5 -9 25 -9 45 0 31 7 42
41 69 25 20 47 31 59 28 30 -8 123 66 141 111 12 32 26 20 43 -37z m842 -29
c21 -16 45 -36 53 -45 7 -9 19 -17 26 -17 7 0 40 -20 74 -45 l60 -44 -15 -38
c-36 -85 -188 -290 -246 -332 -31 -21 -96 -16 -125 11 -22 20 -24 28 -18 68 4
25 15 59 26 76 35 58 51 118 58 229 12 171 30 193 107 137z" transform="matrix(.1 0 0 -.1 0 500)" fill="#2d6cdf" class="color000 svgShape"></path></svg></g></svg>