<?xml version="1.0" standalone="no"?>
<!DOCTYPE svg PUBLIC "-//W3C//DTD SVG 20010904//EN"
 "http://www.w3.org/TR/2001/REC-SVG-20010904/DTD/svg10.dtd">
<svg version="1.0" xmlns="http://www.w3.org/2000/svg"
 width="425.000000pt" height="900.000000pt" viewBox="0 0 425.000000 900.000000"
 preserveAspectRatio="xMidYMid meet">

<g transform="translate(0.000000,900.000000) scale(0.100000,-0.100000)"
fill="#000000" stroke="none">
<path d="M2112 7896 c-145 -80 -174 -126 -203 -324 -25 -170 -24 -180 16 -287
42 -112 64 -228 49 -253 -24 -38 -99 -76 -299 -151 -282 -105 -301 -115 -373
-203 -63 -77 -205 -217 -285 -281 -26 -21 -62 -61 -81 -90 -18 -29 -75 -97
-125 -151 -177 -190 -180 -244 -36 -533 121 -243 344 -606 424 -692 39 -42 46
-56 55 -105 4 -21 17 -58 28 -82 l22 -43 -43 -86 c-111 -225 -207 -556 -246
-850 -22 -169 -31 -496 -16 -622 11 -90 41 -249 122 -635 l23 -106 -61 -71
c-33 -39 -65 -89 -72 -111 -14 -47 -61 -89 -163 -145 l-73 -41 -3 -72 -3 -72
-48 -24 c-53 -28 -142 -118 -172 -177 -45 -90 -48 -270 -5 -360 74 -155 234
-248 405 -236 42 3 102 15 134 27 77 29 176 121 214 198 26 53 28 65 28 187 0
119 -2 134 -25 179 -25 50 -94 126 -165 183 l-40 31 22 23 c21 22 26 22 68 11
25 -7 67 -12 94 -12 43 0 53 4 75 30 57 68 84 277 49 382 -14 43 -15 80 -10
252 4 110 16 282 27 380 26 228 26 228 -9 409 -42 217 -44 238 -28 285 16 46
56 101 75 101 7 1 29 -10 50 -22 56 -36 105 -49 135 -38 36 14 70 60 155 212
78 141 108 182 125 172 7 -4 8 -102 4 -289 l-7 -282 48 -42 c26 -23 64 -51 84
-61 43 -22 53 -38 68 -103 32 -144 32 -185 1 -306 -39 -148 -48 -231 -61 -535
-14 -322 -21 -366 -87 -554 -59 -169 -59 -165 -33 -336 19 -128 29 -157 69
-195 60 -57 168 -78 231 -45 35 18 68 78 76 139 5 36 0 57 -31 125 -67 150
-73 307 -15 466 171 473 192 566 215 970 18 312 22 354 47 425 10 30 30 132
44 225 29 199 51 309 105 537 48 201 58 278 59 424 0 169 13 189 132 213 72
15 98 35 298 223 279 263 513 528 566 643 29 61 30 97 4 149 -46 94 -413 521
-654 761 l-101 101 -160 69 c-201 86 -367 168 -386 191 -31 38 3 202 60 281
15 21 30 46 34 55 3 10 -2 84 -13 165 -10 81 -21 173 -25 204 -6 54 -10 60
-68 117 -75 71 -132 102 -201 108 -44 4 -59 0 -114 -30z m-626 -1698 c26 -50
63 -235 75 -373 12 -138 7 -273 -17 -445 -29 -212 -52 -250 -155 -250 -84 0
-108 24 -185 185 -95 198 -197 462 -202 521 -4 50 -3 53 37 92 50 48 115 82
158 82 17 0 46 12 69 28 54 40 153 141 170 175 17 32 28 28 50 -15z m1489 -87
c33 -16 83 -49 111 -73 28 -24 92 -68 143 -98 51 -30 108 -72 127 -93 40 -44
40 -66 -4 -152 -81 -161 -356 -511 -433 -551 -36 -18 -130 -18 -174 0 -85 36
-87 124 -7 308 58 132 76 210 92 388 18 207 41 300 73 300 6 0 39 -13 72 -29z"/>
</g>
</svg>
