<svg id="SvgjsSvg1070" width="288" height="288" xmlns="http://www.w3.org/2000/svg" version="1.1" xmlns:xlink="http://www.w3.org/1999/xlink" xmlns:svgjs="http://svgjs.com/svgjs"><defs id="SvgjsDefs1071"></defs><g id="SvgjsG1072"><svg xmlns="http://www.w3.org/2000/svg" version="1.0" viewBox="0 0 500 500" width="288" height="288"><path d="M3303 4849 c-92 -8 -155 -30 -182 -63 -8 -9 -19 -16 -26 -16 -6 0-20 -18 -30 -40 -10 -22 -22 -40 -27 -40 -4 0 -8 -11 -8 -24 0 -14 -5 -28 -12
-32 -8 -5 -6 -11 7 -20 16 -12 17 -22 7 -127 -12 -120 -1 -211 31 -274 8 -15
16 -46 18 -68 4 -36 2 -40 -21 -43 -13 -2 -35 -13 -49 -23 -13 -10 -35 -19
-50 -19 -14 -1 -71 -25 -126 -54 -90 -48 -103 -59 -132 -107 -17 -30 -93 -117
-168 -194 -126 -130 -213 -241 -264 -341 -25 -49 -22 -63 57 -220 55 -110 92
-162 191 -272 94 -106 100 -114 111 -173 12 -64 53 -136 86 -151 29 -13 32
-57 10 -146 -16 -60 -37 -253 -41 -362 -1 -36 1 -139 4 -229 6 -155 8 -164 30
-182 23 -19 23 -20 27 -292 5 -368 10 -443 39 -647 13 -96 25 -193 25 -215 0
-55 -29 -98 -97 -142 -32 -20 -67 -44 -78 -53 -11 -9 -39 -22 -61 -28 -54 -15
-70 -34 -48 -53 13 -11 75 -16 253 -21 224 -6 237 -6 256 13 18 18 18 22 5 76
-31 130 -22 377 21 568 30 132 35 275 13 356 -25 91 -28 151 -11 185 8 16 20
73 27 127 7 53 16 98 21 98 5 1 15 2 22 3 9 1 11 24 9 86 -2 66 0 81 9 67 6
-10 14 -48 17 -85 l7 -67 56 -3 56 -3 8 -81 c4 -46 18 -110 31 -147 47 -124
47 -125 26 -224 -22 -99 -21 -137 13 -412 19 -149 19 -206 1 -275 -8 -30 -17
-110 -21 -177 -6 -117 -6 -122 14 -133 27 -14 177 -25 225 -16 46 9 48 38 7
89 -25 32 -29 47 -35 130 -8 108 -4 129 60 327 43 135 47 154 51 277 4 107 1
151 -15 235 -12 63 -23 166 -26 265 l-6 161 50 11 c28 6 58 11 66 11 9 0 12 5
8 12 -4 7 -11 44 -15 82 -4 39 -14 122 -23 185 -15 107 -15 115 2 127 30 22
21 163 -21 318 l-34 129 34 35 c19 19 47 62 63 96 24 55 37 69 126 136 54 40
118 92 143 114 48 45 178 212 205 265 17 33 17 35 -10 110 -32 89 -108 242
-139 280 -12 14 -32 44 -43 67 -11 22 -28 46 -36 53 -9 8 -35 48 -58 90 -23
42 -61 104 -86 139 -39 55 -53 67 -126 101 -44 22 -99 52 -121 67 -22 15 -65
38 -95 52 -96 43 -105 63 -74 154 11 35 23 49 46 59 19 8 37 27 51 55 20 42
20 44 3 63 -17 19 -17 24 -1 111 9 50 14 106 10 123 -11 56 -49 147 -62 147
-7 0 -13 6 -13 14 0 9 -7 12 -19 9 -10 -2 -25 3 -34 11 -8 9 -17 15 -19 15 -2
-1 -44 -5 -95 -10z m-556 -1458 c58 22 58 22 72 -315 9 -203 9 -208 -26 -255
-7 -9 -65 56 -103 115 -22 34 -61 112 -86 175 -25 62 -55 131 -66 152 -10 21
-18 46 -16 54 2 9 30 35 63 58 l59 42 40 -18 c28 -12 46 -15 63 -8z m1019 -67
c21 -14 31 -15 64 -5 l39 12 56 -56 c35 -34 53 -60 49 -68 -30 -52 -199 -299
-226 -329 -38 -43 -116 -108 -129 -108 -5 0 -11 11 -15 25 -3 14 -11 25 -16
25 -6 0 -7 8 -3 18 4 9 16 53 26 97 74 304 103 405 116 405 8 0 25 -7 39 -16z" transform="matrix(.1 0 0 -.1 0 500)" fill="#2d6cdf" class="color000 svgShape"></path></svg></g></svg>